<svg width="30" height="30" viewBox="0 0 30 30" fill="none" xmlns="http://www.w3.org/2000/svg">
<path d="M24.8472 20.5356C22.0013 20.5356 19.6943 22.6542 19.6943 25.2676C19.6943 27.8813 22.0013 29.9998 24.8472 29.9998C27.6932 29.9998 30.0003 27.8813 30.0003 25.2676C30.0001 22.6542 27.6931 20.5356 24.8472 20.5356ZM28.1949 27.5593L27.3889 28.2994C27.3228 28.3603 27.2148 28.3603 27.1486 28.2994L25.561 26.8414L25.5007 26.8965C25.4344 26.9575 25.3268 26.9575 25.2604 26.8965L24.8754 26.543C24.8093 26.4821 24.8093 26.3832 24.8754 26.3222L25.2701 25.9598L24.9188 25.6372L24.0351 26.4489C24.1992 26.8786 24.0947 27.3764 23.7212 27.7194C23.4683 27.9516 23.1324 28.0786 22.7748 28.0773C22.7442 28.077 22.7152 28.0657 22.6946 28.0464C22.6842 28.0366 22.6756 28.0252 22.6698 28.0123C22.6522 27.9732 22.662 27.928 22.6946 27.8982L23.0657 27.5573L22.8441 26.797L22.0163 26.5933L21.6449 26.9343C21.6123 26.9643 21.5632 26.9733 21.5208 26.957C21.4782 26.9409 21.4503 26.9027 21.4501 26.8606C21.4485 26.5323 21.587 26.2235 21.8396 25.9916C22.2132 25.6487 22.7552 25.5525 23.2233 25.7034L24.107 24.8917L22.9405 23.8207L22.1143 23.3323L21.7458 22.735L22.1356 22.3772L22.7858 22.7157L23.3177 23.4743L24.484 24.5454L25.275 23.8191C25.1108 23.3894 25.2154 22.8915 25.5889 22.5485C25.8418 22.3164 26.1776 22.1893 26.5353 22.1907C26.5814 22.191 26.6228 22.2164 26.6403 22.2556C26.6579 22.2949 26.6481 22.3399 26.6154 22.3697L26.2442 22.7106L26.466 23.4709L27.2939 23.6746L27.6653 23.3337C27.6978 23.3036 27.7469 23.2946 27.7894 23.3109C27.832 23.3271 27.8597 23.3651 27.86 23.4072C27.8617 23.7357 27.7231 24.0443 27.4706 24.2764C27.097 24.6193 26.5549 24.7155 26.0869 24.5647L25.2959 25.291L25.647 25.6137L26.0417 25.2512C26.1081 25.1902 26.2158 25.1902 26.2823 25.2512L26.6671 25.6046C26.7335 25.6656 26.7335 25.7646 26.6671 25.8255L26.6071 25.8806L28.1947 27.3386C28.2614 27.3993 28.2614 27.4983 28.1949 27.5593Z" fill="#C40C11"/>
<path d="M22.144 19.9174L18.9755 18.7573L17.4383 17.5681C17.0323 17.253 16.4328 17.2763 16.0563 17.62L13.9191 19.5713L11.776 17.6191C11.3992 17.276 10.8004 17.2538 10.3948 17.5679L8.85766 18.7571L2.2934 21.161C0.179699 21.934 0.1814 28.808 0 29.4389H20.1954C19.0036 28.384 18.2599 26.9046 18.2599 25.2676C18.2597 22.8613 19.8653 20.793 22.144 19.9174Z" fill="#C40C11"/>
<path d="M6.4014 11.3732L7.63416 11.3703C8.39563 15.0239 11.0978 17.1026 13.9182 17.1026C16.7386 17.1026 18.3771 15.8714 19.4637 13.6024C18.6341 14.2 17.4283 14.7466 15.7418 14.8595C15.5868 15.0715 15.3235 15.2111 15.0245 15.2111H14.2367C13.7598 15.2111 13.3733 14.8561 13.3733 14.4182C13.3733 13.9802 13.7598 13.6252 14.2367 13.6252H15.0245C15.3038 13.6252 15.5513 13.7476 15.7092 13.9365C18.4207 13.7366 19.6958 12.2264 20.2043 11.3737L21.435 11.3733C22.1886 11.3733 22.7994 10.8121 22.7994 10.1203V7.2803C22.7994 6.83679 22.5478 6.44789 22.1691 6.22521C21.7133 2.72909 18.1871 0 13.9182 0C9.64927 0 6.12319 2.72909 5.66745 6.22506C5.28872 6.44781 5.03711 6.83665 5.03711 7.28016V10.1202C5.03695 10.8119 5.64773 11.3732 6.4014 11.3732ZM13.9181 1.42007C17.278 1.42007 20.0724 3.45486 20.5875 6.10947C20.4265 6.16563 20.2805 6.24857 20.1553 6.35295C19.3507 4.02001 17.026 2.63323 13.9181 2.63323C10.8103 2.63323 8.48424 4.01922 7.67854 6.35096C7.55397 6.24757 7.40868 6.16521 7.2487 6.10947C7.7639 3.45486 10.5582 1.42007 13.9181 1.42007Z" fill="#C40C11"/>
</svg>
